<svg xmlns="http://www.w3.org/2000/svg" xmlns:xlink="http://www.w3.org/1999/xlink" width="125" zoomAndPan="magnify" viewBox="0 0 93.75 93.749996" height="125" preserveAspectRatio="xMidYMid meet" version="1.2"><defs><clipPath id="2871800ea0"><path d="M 14 27 L 84 27 L 84 61 L 14 61 Z M 14 27 "/></clipPath><clipPath id="3873960103"><path d="M 10.027344 55.066406 L 60.789062 13.160156 L 83.648438 40.847656 L 32.886719 82.753906 Z M 10.027344 55.066406 "/></clipPath><clipPath id="5296659090"><path d="M 10.027344 55.066406 L 60.789062 13.160156 L 83.648438 40.847656 L 32.886719 82.753906 Z M 10.027344 55.066406 "/></clipPath><clipPath id="7f07924b9d"><path d="M 10.027344 55.066406 L 60.789062 13.160156 L 83.648438 40.847656 L 32.886719 82.753906 Z M 10.027344 55.066406 "/></clipPath></defs><g id="d14486141d"><g clip-rule="nonzero" clip-path="url(#2871800ea0)"><g clip-rule="nonzero" clip-path="url(#3873960103)"><g clip-rule="nonzero" clip-path="url(#5296659090)"><g clip-rule="nonzero" clip-path="url(#7f07924b9d)"><path style=" stroke:none;fill-rule:evenodd;fill:#000000;fill-opacity:0.9;" d="M 14.382812 59.792969 C 14.367188 59.683594 14.40625 59.574219 14.472656 59.472656 C 14.664062 59.167969 15.105469 58.890625 15.289062 58.695312 C 15.757812 58.195312 16.246094 57.65625 16.664062 57.117188 C 16.960938 56.738281 17.332031 56.382812 17.667969 56.03125 C 19.6875 53.925781 21.582031 51.789062 23.839844 49.910156 C 25.789062 48.289062 27.933594 46.894531 29.65625 45.03125 C 29.988281 44.671875 30.230469 44.082031 30.644531 43.8125 C 31.023438 43.566406 31.5625 43.59375 32.054688 43.511719 C 33.300781 43.304688 34.554688 43.136719 35.808594 43.003906 C 36.355469 42.945312 37.335938 43.136719 37.292969 42.476562 C 37.265625 42.054688 36.921875 41.617188 36.75 41.242188 C 36.300781 40.296875 36.039062 39.300781 35.6875 38.304688 C 35.464844 37.675781 35.328125 36.902344 34.957031 36.363281 C 34.136719 35.164062 35.730469 34.628906 36.597656 33.992188 C 37.933594 33.015625 39.203125 31.960938 40.511719 30.953125 C 41.445312 30.230469 42.398438 29.53125 43.402344 28.90625 C 44.265625 28.363281 45.132812 27.605469 46.070312 27.214844 C 46.882812 26.882812 47.222656 27.214844 47.921875 27.515625 C 48.960938 27.953125 50.125 28.179688 51.183594 28.601562 C 52.214844 29.011719 53.230469 29.46875 54.242188 29.933594 C 57.007812 31.207031 59.734375 32.320312 62.636719 33.246094 C 68.503906 35.113281 74.089844 37.734375 79.96875 39.566406 C 80.355469 39.609375 80.746094 39.667969 81.113281 39.796875 C 81.601562 39.964844 83.128906 40.25 83 41.035156 C 82.933594 41.4375 82.160156 41.695312 81.84375 41.839844 C 79.78125 42.789062 77.945312 44.054688 75.851562 44.957031 C 72.707031 46.316406 69.597656 47.75 66.445312 49.085938 C 59.484375 52.035156 52.523438 54.996094 45.421875 57.574219 C 44.914062 57.757812 44.425781 57.988281 43.925781 58.179688 C 42.835938 58.589844 42.8125 58.074219 42.421875 57.191406 C 42.082031 56.421875 41.867188 55.621094 41.574219 54.839844 C 41.34375 54.222656 41.339844 53.191406 40.546875 53.089844 C 40.050781 53.027344 39.527344 53.316406 39.0625 53.449219 C 38.179688 53.707031 37.300781 53.964844 36.421875 54.21875 C 34.621094 54.742188 32.824219 55.261719 31.023438 55.765625 C 28.140625 56.570312 25.28125 57.445312 22.402344 58.261719 C 21.175781 58.609375 19.953125 58.988281 18.714844 59.304688 C 17.882812 59.519531 17.0625 59.777344 16.21875 59.949219 C 15.820312 60.03125 14.453125 60.386719 14.382812 59.792969 Z M 36.390625 35.808594 C 35.453125 35.777344 35.671875 36.214844 35.90625 36.9375 C 36.332031 38.25 36.792969 39.675781 37.367188 40.933594 C 37.421875 41.054688 37.476562 41.171875 37.527344 41.292969 C 37.863281 42.046875 38.175781 42.671875 39.039062 42.707031 C 39.007812 42.644531 38.984375 42.574219 38.953125 42.515625 C 38.859375 42.308594 38.769531 42.101562 38.683594 41.890625 C 38.679688 41.878906 38.691406 41.867188 38.703125 41.875 C 38.441406 41.191406 38.335938 40.257812 38.222656 39.753906 C 37.917969 38.402344 37.632812 37.078125 36.976562 35.855469 C 36.78125 35.832031 36.585938 35.816406 36.390625 35.808594 Z M 37.140625 35.875 C 38.320312 38 38.3125 40.53125 39.410156 42.699219 C 39.710938 42.671875 40.015625 42.65625 40.316406 42.636719 C 39.960938 41.359375 39.589844 40.085938 39.246094 38.804688 C 39.035156 38.023438 38.96875 36.757812 38.5625 35.996094 C 38.089844 35.996094 37.617188 35.929688 37.140625 35.875 Z M 42.652344 39.808594 C 42.296875 38.605469 42.34375 37.109375 41.859375 35.964844 C 41.785156 35.964844 41.714844 35.960938 41.644531 35.960938 C 41.117188 35.957031 40.59375 35.960938 40.070312 35.96875 C 40.660156 36.816406 40.992188 37.738281 41.253906 38.75 C 41.410156 39.351562 41.527344 39.964844 41.660156 40.570312 C 41.734375 40.910156 42.277344 42.152344 42.140625 42.546875 C 42.609375 42.527344 43.082031 42.515625 43.550781 42.5 C 43.558594 42.488281 43.570312 42.476562 43.589844 42.472656 C 43.195312 42.515625 42.738281 40.101562 42.652344 39.808594 Z M 58.003906 41.160156 C 57.808594 40.070312 57.761719 38.925781 57.640625 37.820312 C 57.152344 37.746094 56.660156 37.671875 56.171875 37.59375 C 56.46875 38.488281 56.574219 39.453125 56.730469 40.378906 C 56.808594 40.84375 56.910156 41.304688 56.984375 41.769531 C 57 41.878906 57.042969 42.011719 57.042969 42.121094 C 57.042969 42.132812 57.042969 42.140625 57.042969 42.152344 C 57.429688 42.132812 57.8125 42.109375 58.195312 42.085938 C 58.011719 41.917969 58.039062 41.359375 58.003906 41.160156 Z M 73.53125 41.246094 C 73.527344 41.03125 73.589844 40.808594 73.640625 40.601562 C 73.671875 40.453125 73.699219 40.304688 73.726562 40.160156 C 73.484375 40.109375 73.246094 40.0625 73.007812 40.011719 C 72.996094 40.078125 72.980469 40.140625 72.96875 40.203125 C 72.949219 40.324219 72.957031 40.453125 72.953125 40.578125 C 72.945312 40.796875 72.960938 41.078125 72.898438 41.296875 C 72.90625 41.296875 72.914062 41.296875 72.921875 41.296875 C 73.136719 41.300781 73.351562 41.304688 73.570312 41.308594 C 73.546875 41.292969 73.53125 41.273438 73.53125 41.246094 Z M 74.964844 40.402344 C 74.972656 40.480469 74.972656 40.558594 74.96875 40.605469 C 74.960938 40.820312 74.964844 41.121094 74.847656 41.3125 C 74.84375 41.320312 74.835938 41.320312 74.828125 41.328125 C 75.175781 41.328125 75.523438 41.324219 75.867188 41.304688 C 76.453125 41.269531 76.976562 40.847656 76.140625 40.636719 C 75.757812 40.539062 75.359375 40.472656 74.964844 40.402344 Z M 74.71875 41.328125 C 74.667969 41.238281 74.78125 40.949219 74.789062 40.882812 C 74.8125 40.75 74.820312 40.617188 74.835938 40.480469 C 74.835938 40.460938 74.84375 40.421875 74.847656 40.382812 C 74.707031 40.355469 74.570312 40.332031 74.429688 40.304688 C 74.246094 40.265625 74.058594 40.226562 73.871094 40.1875 C 73.859375 40.289062 73.84375 40.394531 73.828125 40.496094 C 73.777344 40.75 73.742188 41.007812 73.699219 41.265625 C 73.695312 41.285156 73.683594 41.296875 73.667969 41.308594 C 74.019531 41.316406 74.371094 41.324219 74.71875 41.328125 Z M 72.753906 40.597656 C 72.777344 40.386719 72.8125 40.1875 72.867188 39.984375 C 72.550781 39.921875 72.234375 39.859375 71.917969 39.800781 C 71.957031 40.074219 71.964844 40.359375 71.980469 40.625 C 71.992188 40.820312 72.046875 41.152344 71.886719 41.304688 C 72.164062 41.300781 72.4375 41.300781 72.714844 41.300781 C 72.707031 41.238281 72.710938 41.179688 72.714844 41.117188 C 72.726562 40.945312 72.738281 40.769531 72.753906 40.597656 Z M 71.761719 40.351562 C 71.75 40.164062 71.726562 39.964844 71.722656 39.769531 C 71.503906 39.730469 71.28125 39.691406 71.058594 39.660156 C 70.933594 39.640625 70.804688 39.625 70.679688 39.605469 C 70.679688 40.183594 70.648438 40.761719 70.566406 41.335938 C 70.960938 41.324219 71.359375 41.316406 71.753906 41.308594 C 71.75 41.296875 71.746094 41.285156 71.746094 41.277344 C 71.757812 40.964844 71.78125 40.664062 71.761719 40.351562 Z M 70.527344 39.585938 C 70.164062 39.53125 69.800781 39.480469 69.433594 39.425781 C 69.539062 39.765625 69.535156 40.195312 69.5625 40.527344 C 69.582031 40.777344 69.648438 41.082031 69.605469 41.335938 C 69.601562 41.34375 69.59375 41.355469 69.589844 41.367188 C 69.855469 41.355469 70.121094 41.351562 70.390625 41.34375 C 70.480469 40.761719 70.523438 40.171875 70.527344 39.585938 Z M 69.332031 40.136719 C 69.328125 40.007812 69.304688 39.871094 69.292969 39.738281 C 69.285156 39.644531 69.28125 39.550781 69.277344 39.453125 C 69.277344 39.433594 69.28125 39.421875 69.28125 39.40625 C 68.925781 39.355469 68.570312 39.300781 68.214844 39.253906 C 68.136719 39.714844 68.117188 40.15625 68.117188 40.628906 C 68.117188 40.769531 68.164062 41.148438 68.136719 41.433594 C 68.566406 41.414062 68.992188 41.390625 69.421875 41.375 C 69.335938 40.996094 69.34375 40.53125 69.332031 40.136719 Z M 67.925781 40.238281 C 67.929688 40.03125 67.917969 39.511719 68.066406 39.234375 C 67.679688 39.179688 67.289062 39.128906 66.902344 39.074219 C 66.914062 39.628906 66.90625 40.1875 66.953125 40.734375 C 66.96875 40.941406 67.042969 41.261719 66.988281 41.5 C 67.140625 41.488281 67.296875 41.476562 67.449219 41.46875 C 67.59375 41.460938 67.738281 41.457031 67.882812 41.449219 C 67.890625 41.359375 67.910156 41.269531 67.910156 41.203125 C 67.917969 40.882812 67.914062 40.558594 67.925781 40.238281 Z M 66.730469 40.675781 C 66.691406 40.144531 66.722656 39.59375 66.730469 39.050781 C 66.214844 38.984375 65.699219 38.914062 65.179688 38.84375 C 65.28125 39.265625 65.273438 39.710938 65.257812 40.140625 C 65.246094 40.597656 65.300781 41.136719 65.257812 41.609375 C 65.761719 41.578125 66.265625 41.542969 66.773438 41.511719 C 66.773438 41.503906 66.769531 41.492188 66.769531 41.476562 C 66.757812 41.398438 66.769531 41.304688 66.765625 41.222656 C 66.757812 41.039062 66.746094 40.859375 66.730469 40.675781 Z M 65.03125 40.320312 C 65.046875 40.035156 65.050781 39.753906 65.050781 39.464844 C 65.046875 39.390625 65.027344 38.996094 64.976562 38.816406 C 64.605469 38.769531 64.234375 38.71875 63.867188 38.671875 C 63.960938 39.160156 63.921875 39.757812 63.945312 40.171875 C 63.957031 40.414062 64.09375 41.222656 64.007812 41.6875 C 64.335938 41.667969 64.664062 41.648438 64.988281 41.625 C 64.910156 41.21875 65.011719 40.691406 65.03125 40.320312 Z M 63.738281 40.191406 C 63.726562 39.839844 63.699219 39.488281 63.679688 39.136719 C 63.667969 38.972656 63.652344 38.804688 63.636719 38.640625 C 63.199219 38.585938 62.765625 38.527344 62.332031 38.46875 C 62.636719 39.550781 62.519531 40.695312 62.867188 41.769531 C 63.179688 41.746094 63.488281 41.726562 63.800781 41.703125 C 63.871094 41.242188 63.757812 40.605469 63.738281 40.191406 Z M 62.167969 38.449219 C 61.761719 38.394531 61.351562 38.34375 60.941406 38.285156 C 61.078125 38.953125 61.199219 39.617188 61.289062 40.292969 C 61.351562 40.785156 61.464844 41.363281 61.394531 41.871094 C 61.816406 41.84375 62.238281 41.8125 62.664062 41.78125 C 62.226562 40.730469 62.453125 39.539062 62.167969 38.449219 Z M 61.03125 40.117188 C 60.953125 39.496094 60.859375 38.878906 60.753906 38.261719 C 60.234375 38.191406 59.714844 38.121094 59.195312 38.050781 C 59.375 38.394531 59.417969 38.832031 59.464844 39.210938 C 59.578125 40.140625 59.828125 41.050781 60.011719 41.96875 C 60.410156 41.941406 60.804688 41.914062 61.203125 41.886719 C 61.089844 41.3125 61.105469 40.699219 61.03125 40.117188 Z M 59.230469 39.40625 C 59.191406 39.175781 58.945312 38.160156 59.035156 38.042969 C 59.03125 38.046875 59.023438 38.042969 59.027344 38.039062 C 59.027344 38.035156 59.027344 38.03125 59.03125 38.027344 C 58.902344 38.007812 58.769531 37.992188 58.640625 37.972656 C 58.367188 37.933594 58.089844 37.886719 57.816406 37.847656 C 57.929688 38.660156 58.085938 39.484375 58.125 40.308594 C 58.140625 40.566406 58.46875 41.785156 58.269531 41.941406 C 58.316406 41.902344 58.382812 41.941406 58.367188 42 C 58.363281 42.023438 58.359375 42.042969 58.355469 42.0625 C 58.351562 42.070312 58.347656 42.070312 58.34375 42.074219 C 58.8125 42.046875 59.28125 42.015625 59.75 41.984375 C 59.585938 41.125 59.375 40.273438 59.230469 39.40625 Z M 56.515625 40.441406 C 56.347656 39.515625 56.105469 38.519531 56.0625 37.574219 C 55.601562 37.5 55.140625 37.421875 54.679688 37.347656 C 54.917969 38.964844 55.046875 40.640625 55.457031 42.222656 C 55.910156 42.207031 56.363281 42.1875 56.816406 42.164062 C 56.605469 41.679688 56.597656 40.902344 56.515625 40.441406 Z M 55.035156 41.203125 C 54.960938 40.554688 54.824219 39.914062 54.71875 39.269531 C 54.617188 38.652344 54.449219 37.957031 54.554688 37.328125 C 53.949219 37.226562 53.34375 37.125 52.738281 37.027344 C 53.460938 38.660156 53.601562 40.523438 53.984375 42.265625 C 54.347656 42.257812 54.714844 42.25 55.082031 42.238281 C 55.128906 42.238281 55.179688 42.234375 55.226562 42.234375 C 55.160156 41.960938 55.039062 41.226562 55.035156 41.203125 Z M 52.5625 36.996094 C 52.109375 36.921875 51.652344 36.847656 51.199219 36.777344 C 51.332031 38.625 51.992188 40.484375 52.292969 42.3125 C 52.777344 42.300781 53.261719 42.285156 53.746094 42.273438 C 53.128906 40.578125 53.199219 38.695312 52.5625 36.996094 Z M 51.492188 39.289062 C 51.332031 38.429688 51.089844 37.628906 51.0625 36.757812 C 50.597656 36.6875 50.132812 36.613281 49.667969 36.550781 C 49.972656 37.117188 50.023438 38.050781 50.152344 38.609375 C 50.296875 39.226562 50.433594 39.839844 50.5625 40.457031 C 50.667969 40.953125 50.753906 41.453125 50.859375 41.949219 C 50.871094 42.050781 50.882812 42.152344 50.898438 42.253906 C 50.914062 42.289062 50.921875 42.316406 50.925781 42.339844 C 51.320312 42.332031 51.710938 42.324219 52.101562 42.3125 C 51.769531 41.351562 51.675781 40.285156 51.492188 39.289062 Z M 50.019531 39.023438 C 49.824219 38.277344 49.828125 37.257812 49.539062 36.53125 C 49.101562 36.472656 48.664062 36.417969 48.222656 36.367188 C 48.257812 36.523438 48.257812 36.6875 48.261719 36.855469 C 48.277344 37.597656 48.480469 38.375 48.632812 39.097656 C 48.855469 40.167969 48.929688 41.351562 49.34375 42.371094 C 49.78125 42.359375 50.21875 42.351562 50.65625 42.34375 C 50.308594 41.308594 50.292969 40.078125 50.019531 39.023438 Z M 48.589844 40.242188 C 48.511719 39.824219 48.167969 37.09375 48.042969 36.347656 C 47.871094 36.328125 47.699219 36.304688 47.527344 36.289062 C 47.234375 36.257812 46.9375 36.234375 46.644531 36.207031 C 46.675781 36.351562 46.671875 36.511719 46.679688 36.65625 C 46.734375 37.484375 47.050781 38.269531 47.222656 39.078125 C 47.410156 39.957031 47.578125 40.84375 47.78125 41.71875 C 47.828125 41.921875 47.941406 42.167969 47.972656 42.394531 C 48.335938 42.386719 48.699219 42.378906 49.0625 42.375 C 48.738281 41.910156 48.648438 40.542969 48.589844 40.242188 Z M 46.398438 36.1875 C 45.972656 36.152344 45.546875 36.121094 45.121094 36.09375 C 45.472656 36.957031 45.589844 37.875 45.726562 38.796875 C 45.910156 40.019531 46.265625 41.210938 46.503906 42.421875 C 46.910156 42.414062 47.316406 42.40625 47.71875 42.398438 C 47.214844 41.367188 46.492188 36.949219 46.398438 36.1875 Z M 44.953125 36.085938 C 44.441406 36.054688 43.925781 36.023438 43.414062 36.007812 C 43.875 36.980469 43.992188 38.039062 44.207031 39.101562 C 44.4375 40.226562 44.78125 41.335938 45.042969 42.453125 C 45.496094 42.441406 45.949219 42.433594 46.402344 42.425781 C 45.5 40.488281 45.71875 38.101562 44.953125 36.085938 Z M 44.066406 39.542969 C 43.769531 38.359375 43.707031 37.117188 43.214844 36 C 42.820312 35.988281 42.421875 35.976562 42.027344 35.96875 C 42.539062 36.914062 42.535156 38.292969 42.789062 39.292969 C 42.988281 40.074219 43.164062 40.949219 43.46875 41.691406 C 43.574219 41.949219 43.726562 42.214844 43.707031 42.496094 C 43.976562 42.488281 44.25 42.476562 44.519531 42.46875 C 44.613281 42.464844 44.710938 42.464844 44.804688 42.460938 C 44.539062 41.492188 44.3125 40.515625 44.066406 39.542969 Z M 41.386719 40.644531 C 41.011719 39.015625 40.742188 37.398438 39.820312 35.972656 C 39.453125 35.980469 39.085938 35.988281 38.71875 35.996094 C 39.015625 36.417969 39.15625 37.445312 39.238281 37.761719 C 39.652344 39.308594 40.507812 41.019531 40.507812 42.625 C 40.960938 42.597656 41.414062 42.578125 41.867188 42.558594 C 41.597656 42.019531 41.449219 40.90625 41.386719 40.644531 Z M 79.609375 40.171875 C 79.75 39.40625 76.617188 38.796875 76.03125 38.59375 C 74.628906 38.117188 73.234375 37.609375 71.847656 37.097656 C 69.097656 36.082031 66.363281 35.039062 63.578125 34.121094 C 60.796875 33.203125 58.078125 32.371094 55.394531 31.175781 C 53.679688 30.410156 51.972656 29.613281 50.199219 28.980469 C 48.488281 28.367188 46.625 27.582031 44.914062 28.667969 C 43.5625 29.527344 42.230469 30.488281 40.972656 31.480469 C 40.09375 32.171875 39.222656 32.875 38.328125 33.546875 C 37.988281 33.804688 37.410156 34.074219 37.195312 34.441406 C 36.660156 35.355469 37.800781 35.203125 38.328125 35.1875 C 39.199219 35.164062 40.070312 35.160156 40.941406 35.175781 C 42.675781 35.210938 44.402344 35.324219 46.125 35.496094 C 49.582031 35.832031 53.011719 36.386719 56.441406 36.941406 C 57.027344 37.039062 57.617188 37.132812 58.203125 37.226562 C 62.492188 37.914062 66.808594 38.40625 71.089844 39.113281 C 72.625 39.363281 74.144531 39.683594 75.675781 39.96875 C 76.25 40.078125 79.460938 40.980469 79.609375 40.171875 Z M 78.644531 42.53125 C 78.484375 42.472656 78.285156 42.507812 78.082031 42.582031 C 78.15625 42.699219 78.179688 42.847656 78.203125 42.980469 C 78.234375 43.167969 78.265625 43.359375 78.289062 43.546875 C 78.289062 43.550781 78.289062 43.550781 78.289062 43.550781 C 78.886719 43.207031 79.359375 42.785156 78.644531 42.53125 Z M 78.167969 43.621094 C 78.144531 43.605469 78.125 43.585938 78.121094 43.550781 C 78.109375 43.394531 78.089844 43.238281 78.070312 43.082031 C 78.054688 42.933594 78.054688 42.75 78.007812 42.609375 C 77.796875 42.691406 77.585938 42.808594 77.40625 42.902344 C 77.511719 43.035156 77.523438 43.238281 77.546875 43.402344 C 77.5625 43.53125 77.617188 43.75 77.59375 43.90625 C 77.765625 43.824219 77.96875 43.726562 78.167969 43.621094 Z M 77.164062 44.09375 C 77.203125 44.078125 77.277344 44.046875 77.375 44.003906 C 77.417969 43.960938 77.460938 43.914062 77.5 43.871094 C 77.457031 43.917969 77.410156 43.960938 77.367188 44.003906 C 77.308594 43.84375 77.328125 43.644531 77.3125 43.476562 C 77.304688 43.375 77.292969 43.277344 77.277344 43.175781 C 77.269531 43.132812 77.269531 43.085938 77.257812 43.042969 C 77.25 42.984375 77.257812 43.042969 77.25 43.019531 C 77.246094 43.007812 77.242188 42.996094 77.238281 42.980469 C 77.226562 42.988281 77.210938 42.996094 77.199219 43 C 76.945312 43.105469 76.691406 43.203125 76.433594 43.304688 C 76.460938 43.40625 76.695312 44 76.707031 44.289062 C 76.859375 44.226562 77.011719 44.164062 77.164062 44.09375 Z M 76.542969 44.359375 C 76.507812 44.273438 76.5 44.152344 76.488281 44.109375 C 76.421875 43.859375 76.339844 43.613281 76.28125 43.363281 C 75.929688 43.496094 75.578125 43.625 75.226562 43.753906 C 75.394531 44.066406 75.464844 44.414062 75.546875 44.761719 C 75.882812 44.632812 76.210938 44.496094 76.542969 44.359375 Z M 75.363281 44.832031 C 75.363281 44.824219 75.359375 44.820312 75.355469 44.816406 C 75.277344 44.472656 75.214844 44.125 75.046875 43.8125 C 74.75 43.917969 74.453125 44.027344 74.152344 44.125 C 74.160156 44.128906 74.164062 44.132812 74.167969 44.140625 C 74.230469 44.320312 74.308594 44.492188 74.367188 44.675781 C 74.417969 44.824219 74.496094 45.007812 74.484375 45.171875 C 74.777344 45.058594 75.070312 44.945312 75.363281 44.832031 Z M 72.152344 46.144531 C 72.148438 46.136719 72.140625 46.128906 72.136719 46.117188 C 72.082031 45.921875 72.011719 45.738281 71.9375 45.554688 C 71.90625 45.472656 71.691406 44.980469 71.714844 44.980469 C 71.699219 44.980469 71.691406 44.960938 71.707031 44.949219 C 71.71875 44.945312 71.730469 44.945312 71.742188 44.9375 C 71.769531 44.921875 71.804688 44.9375 71.824219 44.957031 C 71.957031 45.105469 72.039062 45.292969 72.117188 45.476562 C 72.199219 45.65625 72.292969 45.847656 72.335938 46.042969 C 72.335938 46.054688 72.335938 46.058594 72.335938 46.066406 C 72.800781 45.871094 73.261719 45.667969 73.722656 45.476562 C 73.929688 45.390625 74.136719 45.308594 74.34375 45.226562 C 74.335938 45.21875 74.328125 45.210938 74.328125 45.199219 C 74.28125 45.046875 74.261719 44.882812 74.21875 44.726562 C 74.167969 44.539062 74.128906 44.351562 74.101562 44.15625 C 74.101562 44.148438 74.101562 44.144531 74.105469 44.140625 C 73.851562 44.222656 73.601562 44.304688 73.347656 44.386719 C 73.214844 44.429688 73.078125 44.46875 72.945312 44.507812 C 73.023438 44.695312 73.089844 44.890625 73.160156 45.082031 C 73.210938 45.238281 73.332031 45.449219 73.296875 45.613281 C 73.285156 45.671875 73.222656 45.699219 73.179688 45.652344 C 73.046875 45.515625 73.023438 45.269531 72.96875 45.089844 C 72.914062 44.910156 72.859375 44.730469 72.792969 44.554688 C 72.085938 44.769531 71.375 44.976562 70.664062 45.171875 C 70.757812 45.378906 70.835938 45.597656 70.917969 45.8125 C 70.984375 45.976562 71.050781 46.144531 71.125 46.304688 C 71.160156 46.382812 71.210938 46.457031 71.226562 46.539062 C 71.535156 46.40625 71.84375 46.277344 72.152344 46.144531 Z M 70.117188 47.019531 C 70.078125 46.964844 70.066406 46.902344 70.042969 46.832031 C 69.972656 46.632812 69.910156 46.433594 69.84375 46.234375 C 69.789062 46.0625 69.738281 45.894531 69.675781 45.726562 C 69.644531 45.648438 69.578125 45.574219 69.617188 45.488281 C 69.621094 45.484375 69.628906 45.476562 69.636719 45.476562 C 69.816406 45.484375 69.921875 45.96875 69.972656 46.101562 C 70.042969 46.28125 70.09375 46.46875 70.15625 46.648438 C 70.1875 46.742188 70.25 46.851562 70.257812 46.957031 C 70.53125 46.839844 70.808594 46.71875 71.082031 46.601562 C 70.9375 46.472656 70.878906 46.171875 70.824219 46.015625 C 70.726562 45.753906 70.621094 45.476562 70.582031 45.191406 C 69.871094 45.386719 69.160156 45.574219 68.445312 45.761719 C 68.59375 45.976562 68.683594 46.246094 68.789062 46.492188 C 68.890625 46.730469 68.984375 46.96875 69.070312 47.210938 C 69.097656 47.285156 69.132812 47.363281 69.144531 47.441406 C 69.46875 47.300781 69.792969 47.160156 70.117188 47.019531 Z M 68.964844 47.519531 C 68.828125 47.160156 68.375 46.097656 68.363281 45.78125 C 68 45.875 67.640625 45.96875 67.277344 46.0625 C 67.285156 46.066406 67.296875 46.066406 67.300781 46.074219 C 67.519531 46.394531 67.652344 46.769531 67.796875 47.125 C 67.890625 47.347656 68.050781 47.632812 68.101562 47.894531 C 68.390625 47.769531 68.679688 47.644531 68.964844 47.519531 Z M 67.898438 47.980469 C 67.742188 47.710938 67.667969 47.3125 67.558594 47.042969 C 67.472656 46.8125 67.375 46.589844 67.285156 46.363281 C 67.28125 46.355469 67.171875 46.125 67.1875 46.085938 C 66.835938 46.175781 66.484375 46.265625 66.132812 46.355469 C 66.214844 46.5 66.285156 46.65625 66.265625 46.816406 C 66.265625 46.84375 66.234375 46.859375 66.210938 46.851562 C 66.378906 47.125 66.539062 47.402344 66.683594 47.6875 C 66.742188 47.804688 66.949219 48.125 66.988281 48.375 C 67.292969 48.246094 67.597656 48.113281 67.898438 47.980469 Z M 66.789062 48.460938 C 66.609375 47.753906 66.136719 47.0625 65.773438 46.453125 C 65.773438 46.449219 65.773438 46.449219 65.773438 46.445312 C 65.640625 46.480469 65.507812 46.515625 65.371094 46.550781 C 65.152344 46.605469 64.933594 46.660156 64.714844 46.714844 C 64.882812 47.515625 65.351562 48.199219 65.613281 48.964844 C 66.007812 48.796875 66.398438 48.628906 66.789062 48.460938 Z M 64.523438 49.425781 C 64.820312 49.300781 65.117188 49.171875 65.417969 49.046875 C 65.164062 48.265625 64.707031 47.574219 64.574219 46.753906 C 64.171875 46.855469 63.773438 46.957031 63.371094 47.058594 C 63.683594 47.332031 63.882812 47.902344 64.019531 48.203125 C 64.121094 48.433594 64.4375 49.027344 64.488281 49.4375 Z M 64.234375 49.542969 C 64.214844 49.460938 64.203125 49.375 64.183594 49.300781 C 64.09375 48.996094 63.984375 48.699219 63.867188 48.402344 C 63.683594 47.9375 63.476562 47.503906 63.179688 47.109375 C 62.777344 47.207031 62.382812 47.3125 61.980469 47.410156 C 62.09375 47.597656 62.183594 47.949219 62.191406 47.96875 C 62.289062 48.328125 62.382812 48.683594 62.5 49.039062 C 62.605469 49.359375 62.804688 49.746094 62.855469 50.109375 C 63.316406 49.921875 63.777344 49.730469 64.234375 49.542969 Z M 62.625 50.207031 C 62.390625 49.722656 62.285156 49.074219 62.136719 48.589844 C 62.101562 48.472656 61.984375 47.699219 61.871094 47.441406 C 61.484375 47.539062 61.097656 47.636719 60.710938 47.734375 C 61.113281 48.609375 61.4375 49.691406 61.550781 50.648438 C 61.90625 50.503906 62.265625 50.355469 62.625 50.207031 Z M 61.347656 50.734375 C 61.191406 50.226562 61.097656 49.691406 60.960938 49.179688 C 60.886719 48.898438 60.804688 48.625 60.722656 48.347656 C 60.683594 48.210938 60.644531 48.070312 60.601562 47.933594 C 60.589844 47.886719 60.589844 47.820312 60.589844 47.765625 C 60.171875 47.871094 59.753906 47.976562 59.335938 48.082031 C 59.53125 48.292969 59.628906 48.65625 59.75 48.90625 C 60.078125 49.59375 60.308594 50.339844 60.511719 51.078125 C 60.792969 50.960938 61.070312 50.847656 61.347656 50.734375 Z M 58.179688 52.039062 C 58.382812 51.957031 58.582031 51.875 58.78125 51.792969 C 58.65625 51.285156 58.535156 50.777344 58.386719 50.273438 C 58.273438 49.894531 58.164062 49.511719 58.035156 49.132812 C 58 49.019531 57.917969 48.589844 57.816406 48.515625 C 57.789062 48.496094 57.800781 48.457031 57.835938 48.464844 C 58.242188 48.542969 58.46875 49.769531 58.574219 50.085938 C 58.710938 50.507812 58.828125 50.945312 58.933594 51.378906 C 58.957031 51.460938 58.996094 51.578125 59.019531 51.695312 C 59.445312 51.519531 59.867188 51.34375 60.292969 51.167969 C 60.070312 50.394531 59.804688 49.632812 59.496094 48.894531 C 59.40625 48.671875 59.320312 48.453125 59.242188 48.226562 C 59.222656 48.167969 59.226562 48.128906 59.242188 48.105469 C 58.414062 48.3125 57.585938 48.519531 56.757812 48.726562 C 57.007812 49.121094 57.121094 49.6875 57.269531 50.121094 C 57.460938 50.679688 57.648438 51.242188 57.839844 51.800781 C 57.878906 51.90625 57.925781 52.015625 57.96875 52.125 C 58.039062 52.097656 58.109375 52.070312 58.179688 52.039062 Z M 57.726562 52.222656 C 57.679688 52.089844 57.648438 51.949219 57.613281 51.851562 C 57.453125 51.394531 57.296875 50.9375 57.148438 50.476562 C 56.984375 49.957031 56.671875 49.3125 56.648438 48.753906 C 56.320312 48.832031 55.992188 48.914062 55.664062 48.996094 C 55.898438 49.800781 56.167969 50.589844 56.382812 51.398438 C 56.433594 51.589844 56.683594 52.242188 56.664062 52.652344 C 57.019531 52.507812 57.371094 52.367188 57.726562 52.222656 Z M 56.433594 52.746094 C 56.496094 52.226562 56.179688 51.449219 56.050781 50.972656 C 55.875 50.324219 55.683594 49.683594 55.523438 49.03125 C 55.074219 49.144531 54.621094 49.257812 54.171875 49.371094 C 54.34375 49.863281 54.417969 50.441406 54.511719 50.941406 C 54.660156 51.707031 55.070312 52.5 55.125 53.273438 C 55.5625 53.097656 55.996094 52.921875 56.433594 52.746094 Z M 54.984375 53.328125 C 54.625 52.824219 54.53125 52.023438 54.382812 51.441406 C 54.246094 50.882812 54.179688 50.308594 54.023438 49.753906 C 54.007812 49.699219 54 49.527344 53.992188 49.414062 C 53.601562 49.511719 53.214844 49.609375 52.824219 49.707031 C 53.40625 50.925781 53.59375 52.464844 53.878906 53.773438 C 54.246094 53.625 54.613281 53.476562 54.984375 53.328125 Z M 53.679688 53.851562 C 53.390625 53.277344 53.355469 52.554688 53.21875 51.941406 C 53.0625 51.21875 52.960938 50.4375 52.683594 49.746094 C 52.207031 49.863281 51.734375 49.980469 51.257812 50.101562 C 51.78125 51.003906 51.8125 52.121094 52.125 53.101562 C 52.210938 53.375 52.472656 53.882812 52.550781 54.300781 C 52.925781 54.148438 53.304688 54 53.679688 53.851562 Z M 52.238281 54.421875 C 51.882812 53.628906 51.324219 50.648438 51.0625 50.152344 C 50.632812 50.261719 50.207031 50.371094 49.777344 50.480469 C 50.183594 51.273438 51.011719 53.9375 51.046875 54.890625 C 51.445312 54.738281 51.839844 54.578125 52.238281 54.421875 Z M 50.8125 54.984375 C 50.621094 54.261719 50.5 53.496094 50.296875 52.773438 C 50.113281 52.121094 49.667969 51.246094 49.625 50.519531 C 49.214844 50.625 48.804688 50.726562 48.394531 50.835938 C 48.851562 51.878906 48.996094 53.019531 49.386719 54.085938 C 49.492188 54.378906 49.804688 54.9375 49.835938 55.367188 C 50.160156 55.242188 50.484375 55.109375 50.8125 54.984375 Z M 49.582031 55.464844 C 49.484375 54.957031 49.296875 54.472656 49.125 53.988281 C 48.765625 52.980469 48.648438 51.90625 48.226562 50.917969 C 48.21875 50.90625 48.21875 50.894531 48.21875 50.882812 C 48.183594 50.890625 48.148438 50.898438 48.117188 50.90625 C 47.628906 51.039062 47.144531 51.171875 46.660156 51.304688 C 47.078125 51.925781 47.167969 52.71875 47.285156 53.445312 C 47.429688 54.335938 47.886719 55.167969 48.039062 56.050781 C 48.554688 55.859375 49.066406 55.660156 49.582031 55.464844 Z M 47.554688 56.238281 C 47.632812 56.207031 47.714844 56.175781 47.796875 56.144531 C 47.574219 55.5 47.34375 54.828125 47.183594 54.179688 C 46.957031 53.261719 47.007812 52.15625 46.488281 51.351562 C 46.054688 51.46875 45.625 51.585938 45.195312 51.703125 C 45.542969 53.011719 46.054688 54.3125 46.484375 55.597656 C 46.570312 55.851562 46.730469 56.191406 46.808594 56.507812 C 47.058594 56.417969 47.304688 56.328125 47.554688 56.238281 Z M 46.53125 56.609375 C 46.316406 56.1875 46.117188 55.265625 46.042969 55.023438 C 45.703125 53.933594 45.261719 52.867188 45.027344 51.75 C 44.726562 51.832031 44.425781 51.914062 44.128906 51.996094 C 44.109375 52.003906 44.089844 52.007812 44.070312 52.011719 C 44.03125 52.761719 44.425781 53.566406 44.6875 54.246094 C 45.023438 55.117188 45.375 56.035156 45.613281 56.945312 C 45.921875 56.832031 46.226562 56.71875 46.53125 56.609375 Z M 44.867188 57.214844 C 45.0625 57.148438 45.25 57.074219 45.441406 57.007812 C 45.035156 56.0625 44.796875 55.042969 44.441406 54.078125 C 44.21875 53.472656 43.859375 52.703125 43.992188 52.03125 C 43.566406 52.136719 43.089844 52.195312 42.664062 52.351562 C 42.628906 53.21875 43.023438 54.054688 43.328125 54.851562 C 43.652344 55.703125 44 56.5625 44.289062 57.429688 C 44.46875 57.378906 44.652344 57.292969 44.867188 57.214844 Z M 42.222656 55.332031 C 42.453125 55.972656 43.011719 56.945312 43.585938 57.328125 C 43.738281 57.425781 43.871094 57.464844 44.003906 57.46875 C 43.535156 56.617188 43.316406 55.578125 42.984375 54.679688 C 42.726562 53.980469 42.382812 53.164062 42.53125 52.402344 C 42.390625 52.464844 42.257812 52.535156 42.136719 52.628906 C 41.464844 53.152344 41.679688 53.984375 41.921875 54.664062 C 41.984375 54.847656 42.140625 55.097656 42.222656 55.332031 Z M 18.144531 58.667969 C 18.699219 58.59375 19.253906 58.519531 19.792969 58.371094 C 20.804688 58.085938 21.8125 57.769531 22.824219 57.480469 C 25.695312 56.660156 28.558594 55.808594 31.4375 55.011719 C 37.175781 53.421875 42.871094 51.695312 48.628906 50.1875 C 54.152344 48.746094 59.710938 47.457031 65.242188 46.050781 C 67.757812 45.414062 70.285156 44.816406 72.773438 44.070312 C 74.003906 43.699219 75.226562 43.292969 76.425781 42.828125 C 76.75 42.703125 78.882812 41.972656 77.578125 41.480469 C 77.066406 41.289062 76.089844 41.5625 75.519531 41.578125 C 73.875 41.628906 72.226562 41.578125 70.582031 41.671875 C 65.976562 41.9375 61.378906 42.347656 56.777344 42.714844 C 49.835938 43.265625 42.859375 42.976562 35.929688 43.71875 C 34.828125 43.835938 33.710938 43.902344 32.632812 44.167969 C 31.441406 44.460938 30.699219 45.015625 29.773438 45.78125 C 29.15625 46.292969 28.527344 46.796875 27.898438 47.296875 C 26.671875 48.277344 25.4375 49.253906 24.234375 50.261719 C 21.914062 52.210938 19.945312 54.433594 17.816406 56.558594 C 17.40625 56.964844 16.925781 57.484375 16.714844 58.035156 C 16.265625 59.191406 17.476562 58.757812 18.144531 58.667969 Z M 18.144531 58.667969 "/></g></g></g></g></g></svg>