<svg xmlns="http://www.w3.org/2000/svg" xmlns:xlink="http://www.w3.org/1999/xlink" width="125" zoomAndPan="magnify" viewBox="0 0 93.75 93.749996" height="125" preserveAspectRatio="xMidYMid meet" version="1.2"><defs><clipPath id="b581ef8802"><path d="M 25 24 L 68 24 L 68 84.152344 L 25 84.152344 Z M 25 24 "/></clipPath><clipPath id="f72d1ae061"><path d="M 10 9.351562 L 83.917969 9.351562 L 83.917969 74 L 10 74 Z M 10 9.351562 "/></clipPath></defs><g id="134a17ca4d"><g clip-rule="nonzero" clip-path="url(#b581ef8802)"><path style=" stroke:none;fill-rule:evenodd;fill:#ffffff;fill-opacity:1;" d="M 60.066406 29.757812 C 55.195312 25.746094 48.796875 24.167969 42.484375 25.371094 C 34.085938 27.007812 27.449219 33.789062 25.980469 42.246094 C 24.816406 48.957031 26.804688 55.601562 31.445312 60.476562 C 33.429688 62.5625 34.519531 65.117188 34.519531 67.664062 L 34.519531 68.789062 C 34.519531 69.871094 35.394531 70.742188 36.472656 70.742188 L 56.910156 70.742188 C 57.992188 70.742188 58.863281 69.871094 58.863281 68.789062 L 58.863281 67.664062 C 58.863281 65.113281 59.953125 62.5625 61.933594 60.484375 C 65.671875 56.566406 67.730469 51.417969 67.730469 46.003906 C 67.730469 39.695312 64.9375 33.777344 60.066406 29.757812 M 53.949219 80.296875 L 39.4375 80.296875 C 38.355469 80.296875 37.484375 81.167969 37.484375 82.25 C 37.484375 83.328125 38.355469 84.203125 39.4375 84.203125 L 53.949219 84.203125 C 55.027344 84.203125 55.902344 83.328125 55.902344 82.25 C 55.902344 81.167969 55.027344 80.296875 53.949219 80.296875 M 56.015625 73.792969 L 37.371094 73.792969 C 36.292969 73.792969 35.417969 74.664062 35.417969 75.746094 C 35.417969 76.828125 36.292969 77.703125 37.371094 77.703125 L 56.015625 77.703125 C 57.09375 77.703125 57.96875 76.828125 57.96875 75.746094 C 57.96875 74.664062 57.09375 73.792969 56.015625 73.792969 "/></g><g clip-rule="nonzero" clip-path="url(#f72d1ae061)"><path style=" stroke:none;fill-rule:evenodd;fill:#ffffff;fill-opacity:1;" d="M 66.480469 28.308594 C 66.980469 28.308594 67.480469 28.117188 67.863281 27.738281 L 73.339844 22.261719 C 74.101562 21.5 74.101562 20.261719 73.339844 19.5 C 72.578125 18.738281 71.335938 18.738281 70.574219 19.5 L 65.097656 24.972656 C 64.335938 25.738281 64.335938 26.972656 65.097656 27.738281 C 65.480469 28.117188 65.980469 28.308594 66.480469 28.308594 Z M 25.640625 64.429688 L 20.175781 69.898438 C 19.414062 70.660156 19.414062 71.898438 20.175781 72.660156 C 20.558594 73.042969 21.054688 73.234375 21.554688 73.234375 C 22.054688 73.234375 22.554688 73.042969 22.9375 72.660156 L 28.40625 67.191406 C 29.171875 66.425781 29.171875 65.191406 28.40625 64.429688 C 27.644531 63.664062 26.40625 63.664062 25.640625 64.429688 Z M 25.644531 27.738281 C 26.027344 28.117188 26.527344 28.308594 27.027344 28.308594 C 27.53125 28.308594 28.03125 28.117188 28.410156 27.738281 C 29.175781 26.972656 29.175781 25.738281 28.410156 24.972656 L 22.9375 19.5 C 22.175781 18.738281 20.9375 18.738281 20.175781 19.5 C 19.414062 20.261719 19.414062 21.5 20.175781 22.261719 Z M 66.828125 63.390625 C 66.066406 62.625 64.832031 62.625 64.066406 63.390625 C 63.304688 64.152344 63.304688 65.386719 64.066406 66.152344 L 69.535156 71.621094 C 69.917969 72.003906 70.414062 72.195312 70.914062 72.195312 C 71.414062 72.195312 71.914062 72.003906 72.296875 71.621094 C 73.058594 70.855469 73.058594 69.617188 72.296875 68.855469 Z M 46.753906 20.992188 C 47.835938 20.992188 48.707031 20.117188 48.707031 19.039062 L 48.707031 11.304688 C 48.707031 10.226562 47.835938 9.351562 46.753906 9.351562 C 45.675781 9.351562 44.800781 10.226562 44.800781 11.304688 L 44.800781 19.039062 C 44.800781 20.117188 45.675781 20.992188 46.753906 20.992188 Z M 21.695312 46.082031 C 21.695312 45 20.820312 44.128906 19.742188 44.128906 L 11.980469 44.128906 C 10.902344 44.128906 10.027344 45 10.027344 46.082031 C 10.027344 47.160156 10.902344 48.035156 11.980469 48.035156 L 19.742188 48.035156 C 20.820312 48.035156 21.695312 47.160156 21.695312 46.082031 Z M 81.53125 44.128906 L 73.914062 44.128906 C 72.835938 44.128906 71.960938 45 71.960938 46.082031 C 71.960938 47.160156 72.835938 48.035156 73.914062 48.035156 L 81.53125 48.035156 C 82.609375 48.035156 83.484375 47.160156 83.484375 46.082031 C 83.484375 45 82.609375 44.128906 81.53125 44.128906 Z M 81.53125 44.128906 "/></g></g></svg>