<svg xmlns="http://www.w3.org/2000/svg" xmlns:xlink="http://www.w3.org/1999/xlink" width="125" zoomAndPan="magnify" viewBox="0 0 93.75 93.749996" height="125" preserveAspectRatio="xMidYMid meet" version="1.2"><g id="c3d84443e0"><path style=" stroke:none;fill-rule:nonzero;fill:#ffffff;fill-opacity:1;" d="M 69.324219 12.171875 C 62.347656 9.691406 54.273438 11.214844 48.6875 16.796875 C 43.105469 22.382812 41.585938 30.457031 44.0625 37.433594 L 12.667969 68.824219 C 9.34375 72.152344 9.34375 77.503906 12.667969 80.832031 C 15.996094 84.15625 21.351562 84.15625 24.675781 80.832031 L 56.066406 49.441406 C 63.042969 51.917969 71.121094 50.394531 76.703125 44.8125 C 82.285156 39.226562 83.808594 31.152344 81.332031 24.175781 L 72.035156 33.472656 C 68.707031 36.796875 63.351562 36.796875 60.027344 33.472656 C 56.703125 30.148438 56.703125 24.792969 60.027344 21.464844 Z M 69.324219 12.171875 "/></g></svg>