<svg xmlns="http://www.w3.org/2000/svg" xmlns:xlink="http://www.w3.org/1999/xlink" width="125" zoomAndPan="magnify" viewBox="0 0 93.75 93.749996" height="125" preserveAspectRatio="xMidYMid meet" version="1.2"><defs><clipPath id="ab1d417bad"><path d="M 26 9.351562 L 67 9.351562 L 67 25 L 26 25 Z M 26 9.351562 "/></clipPath><clipPath id="66be4f6b3c"><path d="M 14.445312 12 L 78.773438 12 L 78.773438 84 L 14.445312 84 Z M 14.445312 12 "/></clipPath></defs><g id="34c2468198"><g clip-rule="nonzero" clip-path="url(#ab1d417bad)"><path style=" stroke:none;fill-rule:nonzero;fill:#ffffff;fill-opacity:1;" d="M 29.984375 9.175781 L 62.890625 9.175781 C 63.351562 9.175781 63.792969 9.265625 64.214844 9.441406 C 64.640625 9.617188 65.015625 9.867188 65.339844 10.191406 C 65.664062 10.515625 65.914062 10.890625 66.089844 11.316406 C 66.265625 11.738281 66.355469 12.179688 66.355469 12.640625 L 66.355469 21.300781 C 66.355469 21.761719 66.265625 22.203125 66.089844 22.625 C 65.914062 23.050781 65.664062 23.425781 65.339844 23.75 C 65.015625 24.074219 64.640625 24.324219 64.214844 24.5 C 63.792969 24.675781 63.351562 24.765625 62.890625 24.765625 L 29.984375 24.765625 C 29.523438 24.765625 29.082031 24.675781 28.65625 24.5 C 28.234375 24.324219 27.859375 24.074219 27.535156 23.75 C 27.207031 23.425781 26.957031 23.050781 26.78125 22.625 C 26.605469 22.203125 26.519531 21.761719 26.519531 21.300781 L 26.519531 12.640625 C 26.519531 12.179688 26.605469 11.738281 26.78125 11.316406 C 26.957031 10.890625 27.207031 10.515625 27.535156 10.191406 C 27.859375 9.867188 28.234375 9.617188 28.65625 9.441406 C 29.082031 9.265625 29.523438 9.175781 29.984375 9.175781 Z M 29.984375 9.175781 "/></g><g clip-rule="nonzero" clip-path="url(#66be4f6b3c)"><path style=" stroke:none;fill-rule:nonzero;fill:#ffffff;fill-opacity:1;" d="M 72.417969 12.640625 L 69.820312 12.640625 L 69.820312 21.300781 C 69.820312 21.753906 69.773438 22.207031 69.6875 22.652344 C 69.597656 23.097656 69.464844 23.53125 69.292969 23.953125 C 69.117188 24.371094 68.902344 24.773438 68.652344 25.148438 C 68.398438 25.527344 68.109375 25.878906 67.789062 26.199219 C 67.46875 26.519531 67.117188 26.808594 66.738281 27.0625 C 66.363281 27.3125 65.960938 27.527344 65.542969 27.703125 C 65.121094 27.875 64.6875 28.007812 64.242188 28.09375 C 63.796875 28.183594 63.347656 28.230469 62.890625 28.230469 L 29.984375 28.230469 C 29.527344 28.230469 29.078125 28.183594 28.632812 28.09375 C 28.183594 28.007812 27.753906 27.875 27.332031 27.703125 C 26.910156 27.527344 26.511719 27.3125 26.132812 27.0625 C 25.753906 26.808594 25.40625 26.519531 25.085938 26.199219 C 24.761719 25.878906 24.476562 25.527344 24.222656 25.148438 C 23.96875 24.773438 23.757812 24.371094 23.582031 23.953125 C 23.410156 23.53125 23.277344 23.097656 23.1875 22.652344 C 23.097656 22.207031 23.054688 21.753906 23.054688 21.300781 L 23.054688 12.640625 L 20.457031 12.640625 C 20.058594 12.644531 19.667969 12.683594 19.277344 12.761719 C 18.886719 12.84375 18.507812 12.957031 18.140625 13.113281 C 17.777344 13.265625 17.425781 13.453125 17.097656 13.671875 C 16.765625 13.894531 16.460938 14.144531 16.179688 14.425781 C 15.898438 14.707031 15.648438 15.011719 15.425781 15.34375 C 15.207031 15.671875 15.019531 16.023438 14.867188 16.386719 C 14.710938 16.753906 14.597656 17.132812 14.515625 17.523438 C 14.4375 17.910156 14.398438 18.304688 14.394531 18.703125 L 14.394531 77.589844 C 14.398438 77.988281 14.4375 78.382812 14.515625 78.769531 C 14.597656 79.160156 14.710938 79.539062 14.867188 79.90625 C 15.019531 80.273438 15.207031 80.621094 15.425781 80.949219 C 15.648438 81.28125 15.898438 81.585938 16.179688 81.867188 C 16.460938 82.148438 16.765625 82.398438 17.097656 82.621094 C 17.425781 82.839844 17.777344 83.027344 18.140625 83.183594 C 18.507812 83.335938 18.886719 83.453125 19.277344 83.53125 C 19.667969 83.609375 20.058594 83.648438 20.457031 83.652344 L 72.417969 83.652344 C 72.8125 83.648438 73.207031 83.609375 73.597656 83.53125 C 73.988281 83.453125 74.363281 83.335938 74.730469 83.183594 C 75.097656 83.027344 75.445312 82.839844 75.777344 82.621094 C 76.105469 82.398438 76.414062 82.148438 76.691406 81.867188 C 76.972656 81.585938 77.226562 81.28125 77.445312 80.949219 C 77.667969 80.621094 77.855469 80.273438 78.007812 79.90625 C 78.160156 79.539062 78.277344 79.160156 78.355469 78.769531 C 78.4375 78.382812 78.476562 77.988281 78.480469 77.589844 L 78.480469 18.703125 C 78.476562 18.304688 78.4375 17.910156 78.355469 17.523438 C 78.277344 17.132812 78.160156 16.753906 78.007812 16.386719 C 77.855469 16.023438 77.667969 15.671875 77.445312 15.34375 C 77.226562 15.011719 76.972656 14.707031 76.691406 14.425781 C 76.414062 14.144531 76.105469 13.894531 75.777344 13.671875 C 75.445312 13.453125 75.097656 13.265625 74.730469 13.113281 C 74.363281 12.957031 73.988281 12.84375 73.597656 12.761719 C 73.207031 12.683594 72.8125 12.644531 72.417969 12.640625 Z M 31.714844 68.929688 C 31.714844 69.273438 31.648438 69.605469 31.515625 69.925781 C 31.386719 70.242188 31.199219 70.523438 30.953125 70.769531 C 30.710938 71.011719 30.429688 71.199219 30.109375 71.332031 C 29.792969 71.460938 29.460938 71.527344 29.117188 71.527344 C 28.773438 71.527344 28.441406 71.460938 28.121094 71.332031 C 27.804688 71.199219 27.523438 71.011719 27.28125 70.769531 C 27.035156 70.523438 26.847656 70.242188 26.714844 69.925781 C 26.585938 69.605469 26.519531 69.273438 26.519531 68.929688 L 26.519531 62.003906 C 26.519531 61.65625 26.585938 61.328125 26.714844 61.007812 C 26.847656 60.691406 27.035156 60.410156 27.28125 60.164062 C 27.523438 59.921875 27.804688 59.734375 28.121094 59.601562 C 28.441406 59.46875 28.773438 59.40625 29.117188 59.40625 C 29.460938 59.40625 29.792969 59.46875 30.109375 59.601562 C 30.429688 59.734375 30.710938 59.921875 30.953125 60.164062 C 31.199219 60.410156 31.386719 60.691406 31.515625 61.007812 C 31.648438 61.328125 31.714844 61.65625 31.714844 62.003906 Z M 43.25 68.929688 C 43.25 69.273438 43.183594 69.605469 43.050781 69.925781 C 42.921875 70.242188 42.734375 70.523438 42.488281 70.769531 C 42.246094 71.011719 41.964844 71.199219 41.644531 71.332031 C 41.328125 71.460938 40.996094 71.527344 40.652344 71.527344 C 40.308594 71.527344 39.976562 71.460938 39.65625 71.332031 C 39.339844 71.199219 39.058594 71.011719 38.816406 70.769531 C 38.570312 70.523438 38.382812 70.242188 38.25 69.925781 C 38.121094 69.605469 38.054688 69.273438 38.054688 68.929688 L 38.054688 58.539062 C 38.054688 58.195312 38.121094 57.863281 38.25 57.542969 C 38.382812 57.226562 38.570312 56.945312 38.816406 56.703125 C 39.058594 56.457031 39.339844 56.269531 39.65625 56.136719 C 39.976562 56.007812 40.308594 55.941406 40.652344 55.941406 C 40.996094 55.941406 41.328125 56.007812 41.644531 56.136719 C 41.964844 56.269531 42.246094 56.457031 42.488281 56.703125 C 42.734375 56.945312 42.921875 57.226562 43.050781 57.542969 C 43.183594 57.863281 43.25 58.195312 43.25 58.539062 Z M 42.730469 46.414062 L 30.675781 55.421875 C 30.214844 55.765625 29.695312 55.9375 29.117188 55.941406 C 28.707031 55.945312 28.320312 55.851562 27.953125 55.671875 C 27.585938 55.488281 27.28125 55.230469 27.039062 54.902344 C 26.859375 54.632812 26.730469 54.339844 26.660156 54.023438 C 26.589844 53.707031 26.578125 53.390625 26.625 53.070312 C 26.675781 52.75 26.777344 52.449219 26.941406 52.167969 C 27.101562 51.882812 27.304688 51.640625 27.558594 51.4375 L 41.414062 41.046875 C 41.667969 40.851562 41.949219 40.710938 42.253906 40.617188 C 42.5625 40.527344 42.875 40.492188 43.191406 40.515625 C 43.511719 40.535156 43.816406 40.613281 44.105469 40.746094 C 44.394531 40.882812 44.652344 41.0625 44.878906 41.289062 L 50.144531 46.414062 L 62.199219 37.410156 C 62.472656 37.203125 62.777344 37.054688 63.113281 36.96875 C 63.445312 36.882812 63.78125 36.867188 64.125 36.914062 C 64.464844 36.964844 64.785156 37.074219 65.082031 37.25 C 65.375 37.425781 65.628906 37.652344 65.835938 37.929688 C 66.042969 38.203125 66.1875 38.507812 66.273438 38.84375 C 66.359375 39.175781 66.378906 39.511719 66.328125 39.855469 C 66.28125 40.195312 66.167969 40.515625 65.992188 40.808594 C 65.816406 41.105469 65.589844 41.359375 65.316406 41.566406 L 51.460938 51.957031 C 51.207031 52.152344 50.925781 52.292969 50.621094 52.382812 C 50.3125 52.476562 50 52.511719 49.683594 52.488281 C 49.363281 52.464844 49.058594 52.386719 48.769531 52.253906 C 48.476562 52.121094 48.21875 51.941406 47.996094 51.714844 Z M 54.820312 68.964844 C 54.820312 69.308594 54.753906 69.640625 54.621094 69.960938 C 54.488281 70.277344 54.300781 70.558594 54.058594 70.800781 C 53.816406 71.046875 53.535156 71.234375 53.214844 71.367188 C 52.898438 71.496094 52.566406 71.5625 52.222656 71.5625 C 51.878906 71.5625 51.546875 71.496094 51.226562 71.367188 C 50.910156 71.234375 50.628906 71.046875 50.382812 70.800781 C 50.140625 70.558594 49.953125 70.277344 49.820312 69.960938 C 49.691406 69.640625 49.625 69.308594 49.625 68.964844 L 49.625 62.039062 C 49.625 61.691406 49.691406 61.363281 49.820312 61.042969 C 49.953125 60.726562 50.140625 60.445312 50.382812 60.199219 C 50.628906 59.957031 50.910156 59.769531 51.226562 59.636719 C 51.546875 59.503906 51.878906 59.4375 52.222656 59.4375 C 52.566406 59.4375 52.898438 59.503906 53.214844 59.636719 C 53.535156 59.769531 53.816406 59.957031 54.058594 60.199219 C 54.300781 60.445312 54.488281 60.726562 54.621094 61.042969 C 54.753906 61.363281 54.820312 61.691406 54.820312 62.039062 Z M 66.355469 68.964844 C 66.355469 69.308594 66.289062 69.640625 66.15625 69.960938 C 66.023438 70.277344 65.835938 70.558594 65.59375 70.800781 C 65.351562 71.046875 65.070312 71.234375 64.75 71.367188 C 64.433594 71.496094 64.101562 71.5625 63.757812 71.5625 C 63.414062 71.5625 63.082031 71.496094 62.761719 71.367188 C 62.445312 71.234375 62.164062 71.046875 61.917969 70.800781 C 61.675781 70.558594 61.488281 70.277344 61.355469 69.960938 C 61.226562 69.640625 61.160156 69.308594 61.160156 68.964844 L 61.160156 51.644531 C 61.160156 51.300781 61.226562 50.96875 61.355469 50.652344 C 61.488281 50.332031 61.675781 50.050781 61.917969 49.808594 C 62.164062 49.566406 62.445312 49.378906 62.761719 49.246094 C 63.082031 49.113281 63.414062 49.046875 63.757812 49.046875 C 64.101562 49.046875 64.433594 49.113281 64.75 49.246094 C 65.070312 49.378906 65.351562 49.566406 65.59375 49.808594 C 65.835938 50.050781 66.023438 50.332031 66.15625 50.652344 C 66.289062 50.96875 66.355469 51.300781 66.355469 51.644531 Z M 66.355469 68.964844 "/></g></g></svg>