<svg xmlns="http://www.w3.org/2000/svg" xmlns:xlink="http://www.w3.org/1999/xlink" width="6912" zoomAndPan="magnify" viewBox="0 0 5184 2015.999918" height="2688" preserveAspectRatio="xMidYMid meet" version="1.2"><defs><clipPath id="8de8a4e9cc"><path d="M 3583.296875 663.207031 L 5129.296875 663.207031 L 5129.296875 1292.675781 L 3583.296875 1292.675781 Z M 3583.296875 663.207031 "/></clipPath></defs><g id="b952de883b"><path style=" stroke:none;fill-rule:nonzero;fill:#000000;fill-opacity:1;" d="M 1309.9375 874.496094 C 1280.816406 856.703125 1246.84375 847.808594 1209.636719 847.808594 C 1172.429688 847.808594 1154.632812 853.46875 1131.175781 864.792969 C 1107.71875 876.113281 1088.308594 891.480469 1073.75 910.894531 C 1066.46875 920.597656 1060.804688 930.304688 1055.144531 941.625 L 1050.292969 856.703125 L 937.050781 856.703125 L 937.050781 1471.378906 L 1063.234375 1471.378906 L 1063.234375 1214.996094 C 1073.75 1234.40625 1087.5 1252.199219 1106.101562 1266.757812 C 1132.796875 1287.785156 1166.765625 1299.109375 1207.210938 1299.109375 C 1247.652344 1299.109375 1279.199219 1290.210938 1309.128906 1272.417969 C 1339.054688 1254.625 1362.511719 1228.746094 1379.5 1194.777344 C 1396.484375 1160.808594 1405.382812 1120.367188 1405.382812 1073.457031 C 1405.382812 1026.550781 1397.292969 986.109375 1380.308594 952.949219 C 1363.320312 919.789062 1339.863281 893.910156 1310.746094 876.113281 Z M 1249.269531 1172.9375 C 1229.859375 1195.585938 1203.167969 1206.90625 1169.195312 1206.90625 C 1135.222656 1206.90625 1128.75 1201.246094 1112.574219 1190.730469 C 1096.394531 1180.21875 1083.453125 1164.851562 1075.367188 1144.632812 C 1066.46875 1124.410156 1062.425781 1100.148438 1062.425781 1072.648438 C 1062.425781 1045.152344 1067.277344 1020.078125 1076.175781 1000.667969 C 1085.070312 980.449219 1098.015625 965.082031 1114.191406 954.566406 C 1130.367188 944.054688 1148.972656 938.390625 1170.8125 938.390625 C 1204.785156 938.390625 1230.667969 949.714844 1249.269531 972.359375 C 1267.875 995.007812 1277.582031 1028.167969 1277.582031 1072.648438 C 1277.582031 1117.132812 1267.875 1149.484375 1248.460938 1172.9375 Z M 1249.269531 1172.9375 "/><path style=" stroke:none;fill-rule:nonzero;fill:#000000;fill-opacity:1;" d="M 1817.09375 874.496094 C 1784.738281 856.703125 1745.105469 847.808594 1698.191406 847.808594 C 1651.277344 847.808594 1612.449219 856.703125 1576.859375 874.496094 C 1541.269531 892.289062 1513.769531 918.171875 1494.355469 951.332031 C 1474.945312 984.492188 1465.238281 1024.929688 1465.238281 1072.648438 C 1465.238281 1120.367188 1474.945312 1160.808594 1494.355469 1193.96875 C 1513.769531 1227.128906 1542.078125 1253.007812 1577.667969 1270.800781 C 1613.257812 1288.59375 1656.128906 1297.492188 1704.660156 1297.492188 C 1753.191406 1297.492188 1765.324219 1293.449219 1792.828125 1284.550781 C 1820.328125 1276.464844 1843.785156 1263.523438 1864.007812 1247.347656 C 1884.226562 1231.171875 1898.789062 1211.761719 1908.492188 1189.113281 L 1808.195312 1152.71875 C 1799.296875 1169.703125 1786.355469 1183.453125 1769.371094 1193.160156 C 1752.382812 1202.863281 1731.351562 1207.714844 1703.851562 1207.714844 C 1676.351562 1207.714844 1658.554688 1202.863281 1640.761719 1193.160156 C 1622.964844 1183.453125 1610.023438 1168.085938 1600.316406 1148.675781 C 1594.65625 1137.351562 1590.609375 1123.601562 1588.183594 1108.234375 L 1913.347656 1108.234375 C 1914.964844 1100.148438 1915.773438 1091.25 1915.773438 1080.738281 C 1915.773438 1070.222656 1916.582031 1059.710938 1916.582031 1047.578125 C 1916.582031 1008.753906 1907.683594 974.785156 1890.699219 944.054688 C 1873.710938 914.128906 1848.636719 889.863281 1816.285156 872.070312 Z M 1636.714844 951.332031 C 1653.703125 940.816406 1673.925781 935.964844 1697.382812 935.964844 C 1720.839844 935.964844 1754 945.671875 1771.796875 965.082031 C 1785.546875 980.449219 1794.445312 1002.285156 1796.871094 1028.167969 L 1589.800781 1028.167969 C 1592.230469 1016.84375 1594.65625 1006.328125 1598.699219 997.433594 C 1607.597656 977.214844 1619.730469 961.847656 1636.714844 951.332031 Z M 1636.714844 951.332031 "/><path style=" stroke:none;fill-rule:nonzero;fill:#000000;fill-opacity:1;" d="M 2361.457031 865.601562 C 2336.382812 854.277344 2308.070312 848.617188 2276.527344 848.617188 C 2244.980469 848.617188 2223.140625 853.46875 2200.492188 862.367188 C 2177.84375 871.261719 2157.625 885.011719 2142.253906 903.613281 C 2133.359375 913.320312 2126.078125 925.449219 2120.414062 938.390625 L 2115.5625 858.320312 L 2002.320312 858.320312 L 2002.320312 1291.019531 L 2128.503906 1291.019531 L 2128.503906 1061.328125 C 2128.503906 1032.210938 2133.359375 1009.566406 2143.871094 991.769531 C 2154.386719 974.785156 2167.328125 961.847656 2183.507812 953.757812 C 2199.683594 945.671875 2216.671875 942.4375 2233.65625 942.4375 C 2257.921875 942.4375 2278.144531 949.714844 2293.511719 963.464844 C 2308.878906 977.214844 2316.160156 1003.09375 2316.160156 1040.296875 L 2316.160156 1290.210938 L 2442.34375 1290.210938 L 2442.34375 1006.328125 C 2442.34375 970.742188 2435.0625 941.625 2420.503906 918.171875 C 2405.945312 894.71875 2386.53125 877.734375 2361.457031 865.601562 Z M 2361.457031 865.601562 "/><path style=" stroke:none;fill-rule:nonzero;fill:#000000;fill-opacity:1;" d="M 2685.8125 1048.386719 L 2945.457031 1048.386719 L 2945.457031 956.183594 L 2685.8125 956.183594 L 2685.8125 813.839844 L 3015.019531 813.839844 L 3015.019531 718.402344 L 2558.820312 718.402344 L 2558.820312 1289.402344 L 3027.960938 1289.402344 L 3027.960938 1193.160156 L 2685.8125 1193.160156 Z M 2685.8125 1048.386719 "/><path style=" stroke:none;fill-rule:nonzero;fill:#000000;fill-opacity:1;" d="M 3413.785156 666.640625 L 3413.785156 931.113281 C 3404.082031 911.703125 3391.140625 894.71875 3374.152344 880.160156 C 3347.460938 858.320312 3314.296875 847 3273.855469 847 C 3233.410156 847 3201.863281 855.894531 3171.128906 873.6875 C 3140.390625 891.480469 3116.933594 917.363281 3099.140625 950.523438 C 3081.34375 984.492188 3072.445312 1024.929688 3072.445312 1073.457031 C 3072.445312 1121.984375 3080.535156 1160 3097.523438 1193.96875 C 3114.507812 1227.128906 3137.964844 1253.007812 3167.894531 1270.800781 C 3197.820312 1288.59375 3231.792969 1297.492188 3269.808594 1297.492188 C 3307.828125 1297.492188 3324.003906 1291.832031 3347.460938 1281.316406 C 3370.917969 1269.992188 3390.332031 1254.625 3405.699219 1235.214844 C 3412.167969 1226.320312 3417.832031 1217.421875 3422.683594 1206.90625 L 3427.539062 1289.402344 L 3540.777344 1289.402344 L 3540.777344 666.640625 Z M 3400.84375 1143.824219 C 3391.949219 1164.851562 3379.816406 1180.21875 3363.636719 1190.730469 C 3347.460938 1201.246094 3328.855469 1206.90625 3306.207031 1206.90625 C 3272.234375 1206.90625 3246.351562 1195.585938 3226.941406 1172.9375 C 3207.527344 1150.292969 3198.628906 1117.132812 3198.628906 1072.648438 C 3198.628906 1028.167969 3208.335938 995.816406 3227.75 972.359375 C 3247.160156 949.714844 3273.855469 938.390625 3308.636719 938.390625 C 3343.414062 938.390625 3349.078125 943.246094 3364.445312 953.757812 C 3380.625 964.273438 3392.757812 978.832031 3401.652344 998.242188 C 3410.550781 1017.652344 3414.597656 1041.105469 3414.597656 1068.605469 C 3414.597656 1096.105469 3409.742188 1121.984375 3400.84375 1143.015625 Z M 3400.84375 1143.824219 "/><path style=" stroke:none;fill-rule:nonzero;fill:#f24915;fill-opacity:1;" d="M 375.699219 718.402344 C 292.386719 787.957031 239.8125 891.480469 239.8125 1008.753906 C 239.8125 1126.03125 292.386719 1229.554688 375.699219 1299.109375 L 240.621094 1299.109375 C 157.308594 1229.554688 104.730469 1126.03125 104.730469 1008.753906 C 104.730469 891.480469 157.308594 787.957031 240.621094 718.402344 Z M 375.699219 718.402344 "/><path style=" stroke:none;fill-rule:nonzero;fill:#03a4ea;fill-opacity:1;" d="M 586.8125 1298.300781 C 670.125 1228.746094 722.703125 1125.21875 722.703125 1007.945312 C 722.703125 891.480469 670.125 787.148438 586.8125 717.59375 L 721.894531 717.59375 C 805.207031 787.148438 857.78125 890.671875 857.78125 1007.945312 C 857.78125 1124.410156 805.207031 1228.746094 721.894531 1298.300781 Z M 586.8125 1298.300781 "/><g clip-rule="nonzero" clip-path="url(#8de8a4e9cc)"><path style=" stroke:none;fill-rule:nonzero;fill:#f24915;fill-opacity:1;" d="M 3583.296875 663.207031 L 5129.921875 663.207031 L 5129.921875 1292.675781 L 3583.296875 1292.675781 Z M 3583.296875 663.207031 "/></g><g style="fill:#ffffff;fill-opacity:1;"><g transform="translate(3689.575389, 1142.049072)"><path style="stroke:none" d="M 146.609375 0 L 24.921875 0 L 24.921875 -329.234375 L 146.453125 -329.234375 C 179.992188 -329.234375 208.898438 -322.671875 233.171875 -309.546875 C 257.453125 -296.421875 276.179688 -277.554688 289.359375 -252.953125 C 302.546875 -228.359375 309.140625 -198.96875 309.140625 -164.78125 C 309.140625 -130.488281 302.570312 -101.015625 289.4375 -76.359375 C 276.3125 -51.710938 257.582031 -32.820312 233.25 -19.6875 C 208.925781 -6.5625 180.046875 0 146.609375 0 Z M 104.5 -67.84375 L 143.5625 -67.84375 C 161.988281 -67.84375 177.601562 -70.976562 190.40625 -77.25 C 203.21875 -83.519531 212.921875 -93.753906 219.515625 -107.953125 C 226.109375 -122.148438 229.40625 -141.09375 229.40625 -164.78125 C 229.40625 -188.46875 226.082031 -207.359375 219.4375 -221.453125 C 212.789062 -235.546875 203.007812 -245.722656 190.09375 -251.984375 C 177.1875 -258.253906 161.300781 -261.390625 142.4375 -261.390625 L 104.5 -261.390625 Z M 104.5 -67.84375 "/></g></g><g style="fill:#ffffff;fill-opacity:1;"><g transform="translate(4000.490053, 1142.049072)"><path style="stroke:none" d="M 96.140625 0 L 10.609375 0 L 121.703125 -329.234375 L 227.640625 -329.234375 L 338.71875 0 L 253.203125 0 L 175.875 -246.28125 L 173.296875 -246.28125 Z M 84.71875 -129.578125 L 263.484375 -129.578125 L 263.484375 -69.125 L 84.71875 -69.125 Z M 84.71875 -129.578125 "/></g></g><g style="fill:#ffffff;fill-opacity:1;"><g transform="translate(4349.826948, 1142.049072)"><path style="stroke:none" d="M 104.5 -329.234375 L 104.5 0 L 24.921875 0 L 24.921875 -329.234375 Z M 104.5 -329.234375 "/></g></g><g style="fill:#ffffff;fill-opacity:1;"><g transform="translate(4479.240809, 1142.049072)"><path style="stroke:none" d="M 24.921875 0 L 24.921875 -329.234375 L 104.5 -329.234375 L 104.5 -64.625 L 241.46875 -64.625 L 241.46875 0 Z M 24.921875 0 "/></g></g><g style="fill:#ffffff;fill-opacity:1;"><g transform="translate(4685.981383, 1142.049072)"><path style="stroke:none" d="M 8.515625 -329.234375 L 97.421875 -329.234375 L 167.03125 -191.46875 L 169.921875 -191.46875 L 239.53125 -329.234375 L 328.4375 -329.234375 L 208.03125 -109.953125 L 208.03125 0 L 128.9375 0 L 128.9375 -109.953125 Z M 8.515625 -329.234375 "/></g></g></g></svg>