<?xml version="1.0" encoding="UTF-8"?>
<svg width="800px" height="800px" viewBox="0 0 24 24" version="1.1" xmlns="http://www.w3.org/2000/svg" xmlns:xlink="http://www.w3.org/1999/xlink">
    <g stroke="none" stroke-width="1" fill="none" fill-rule="evenodd">
        <path d="M3,3 C3.55228,3 4,3.44772 4,4 L4,19 L20,19 C20.5523,19 21,19.4477 21,20 C21,20.5523 20.5523,21 20,21 L3,21 C2.44772,21 2,20.5523 2,20 L2,4 C2,3.44772 2.44772,3 3,3 Z M7,14 C7.55228,14 8,14.4477 8,15 L8,17 C8,17.5523 7.55228,18 7,18 C6.44772,18 6,17.5523 6,17 L6,15 C6,14.4477 6.44772,14 7,14 Z M11,10 C11.5523,10 12,10.4477 12,11 L12,17 C12,17.5523 11.5523,18 11,18 C10.4477,18 10,17.5523 10,17 L10,11 C10,10.4477 10.4477,10 11,10 Z M15,6 C15.5523,6 16,6.44772 16,7 L16,17 C16,17.5523 15.5523,18 15,18 C14.4477,18 14,17.5523 14,17 L14,7 C14,6.44772 14.4477,6 15,6 Z M19,2 C19.5523,2 20,2.44772 20,3 L20,17 C20,17.5523 19.5523,18 19,18 C18.4477,18 18,17.5523 18,17 L18,3 C18,2.44772 18.4477,2 19,2 Z" fill="#FFFFFF"></path>
    </g>
</svg>
